<?xml version="1.0" encoding="UTF-8"?>
<svg id="Layer_2" data-name="Layer 2" xmlns="http://www.w3.org/2000/svg" viewBox="0 0 297.17 53.83">
  <defs>
    <style>
      .cls-1 {
        fill: #fff;
        stroke-width: 0px;
      }
    </style>
  </defs>
  <g id="Layer_1-2" data-name="Layer 1">
    <g>
      <path class="cls-1" d="M163.27,52.47c-6.69-10.42-13.39-20.85-20.69-32.22v32.22h-11.88V.51c3.23-.96,6.71-.24,10.11-.45,1.83-.11,2.51,1.4,3.31,2.64,5.01,7.82,10,15.65,15,23.46,1.14,1.79,2.33,3.54,4.2,6.37V.27h11.32c.96,3.58,1.31,40.54.45,52.2h-11.83Z"/>
      <path class="cls-1" d="M24.76,52.62h-12.15c0-7.02,0-13.94,0-20.86s0-13.6,0-20.82H.7C-.32,7.28.07,4.02.09.41h36.62c.93,3.27.25,6.54.49,10.2h-12.43v42Z"/>
      <path class="cls-1" d="M238.83,37.59c2.89-6.35,5.4-11.85,7.96-17.47h13.32c-5.85,10.97-11.49,21.56-17.24,32.34-2.44.52-5.07.22-7.96.19-5.69-10.67-11.39-21.36-17.35-32.55h13.3c2.52,5.52,5.04,11.04,7.98,17.48Z"/>
      <path class="cls-1" d="M297.12,20.03h-10.68c-.25.83-.48,1.59-.75,2.46-8.89-4.8-15.9-4.45-21.46.83-5.28,5.01-7.31,14.5-3.58,21.12,6.13,10.87,14.98,11.75,25.15,5.48.19.87.36,1.66.57,2.64,3.53.18,7.08.48,10.78-.17,0-5.57,0-10.86,0-16.15,0-5.39.05-10.79-.04-16.2ZM278.57,43.85c-4.7.06-7.4-2.56-7.46-7.23-.05-4.42,2.97-7.75,7.11-7.85,4.39-.11,8,3.38,7.94,7.69-.06,4.33-3.15,7.33-7.59,7.39Z"/>
      <path class="cls-1" d="M208.8,21.38c-5.28-2.69-10.85-3.08-16.39-1.4-6.75,2.04-12.57,6.92-13.09,15.59-.51,8.52,5.18,14.64,11.37,16.8,5.66,1.98,11.34,1.93,16.98-.31,6.59-2.62,10.6-8.28,10.72-15.22.05-7.15-3.25-12.24-9.58-15.46ZM198.59,43.83c-4.53-.07-7.36-3-7.26-7.51.1-4.24,3.36-7.51,7.54-7.55,4.44-.04,7.55,3.32,7.44,8.03-.1,4.44-3.03,7.1-7.72,7.02Z"/>
      <path class="cls-1" d="M52.82,43.64c-2.17-1.22-3.4-2.86-3.02-5.8h23.39c.18-11.48-5.1-16.02-11.65-17.97-3.7-1.1-7.57-1.24-11.28-.04-10.08,3.25-13.69,13.42-12.13,20.16,2.04,8.84,11.66,15.82,22.71,13.26,4.92-1.14,9.13-3.3,11.72-8.21-2.77-1.37-5.26-2.59-7.75-3.82-3.73,2.95-7.43,4.97-11.97,2.42ZM55.03,26.67c3.94-.36,5.14.44,7.08,4.96h-11.82c.85-3.85,1.66-4.68,4.74-4.96Z"/>
      <path class="cls-1" d="M99.84,20.18c-4.16-1.38-8.52-1.73-12.68-.21-12.27,4.51-15.69,17.79-8.49,26.92,6.23,7.89,19.49,9.27,27.26,2.83,1.47-1.21,3.07-2.44,3.5-4.75-2.57-1.3-5.03-2.55-7.46-3.78-7.68,5.73-13.82,4.49-14.89-3.23h23.11c.5-9.24-3.14-15.38-10.34-17.77ZM87.43,31.52c1.1-3.88,1.74-4.51,4.73-4.78,4.1-.37,5.05.26,7.07,4.76-3.97.43-7.86.42-11.8.02Z"/>
    </g>
  </g>
</svg>